<?xml version="1.0" encoding="UTF-8" standalone="no"?>
<!DOCTYPE score-partwise PUBLIC "-//Recordare//DTD MusicXML 1.1 Partwise//EN" "http://www.musicxml.org/dtds/partwise.dtd">
<score-partwise>
	<work>
		<work-title>Gabriel's ell</work-title>
	</work>
	<identification>
		<creator type="composer">Music: Peter Yost</creator>
		<creator type="poet">Poems compiled from
inscriptions found on bells.
13th - 14th Century</creator>
		<encoding>
			<software>PDFtoMusic Pro v2026H1 (2.2 Build 2DD71) - (c) Myriad - http://www.myriad-online.com</software>
			<?PDFtoMusic Document type 0100- 5A503204?>
			<?Font corrections applied by user?>
		</encoding>
	</identification>
	<defaults>
		<scaling>
			<millimeters>6.256010</millimeters>
			<tenths>40</tenths>
		</scaling>
		<page-layout>
			<page-height>1786.442</page-height>
			<page-width>1380.433</page-width>
			<page-margins type="both">
				<left-margin>63.939</left-margin>
				<right-margin>63.939</right-margin>
				<top-margin>63.939</top-margin>
				 <bottom-margin>63.939</bottom-margin>
			</page-margins>
		</page-layout>
	</defaults>
	<credit>
		<credit-type>subtitle</credit-type>
		<credit-words  default-x="78.901" default-y="1607.798" justify="left" valign="baseline" font-family="Garamond" font-size="10.000000" font-weight="normal" font-style="normal">Poems compiled from
inscriptions found on bells.
13th - 14th Century</credit-words>
	</credit>
	<credit>
		<credit-words  default-x="159.927" default-y="1435.852" justify="left" valign="baseline" font-family="GoldenCockerelITCStd" font-size="8.500000" font-weight="normal" font-style="italic">Flowing, but not rushed
solo</credit-words>
	</credit>
	<credit>
		<credit-type>title</credit-type>
		<credit-words  default-x="560.767" default-y="1588.580" justify="left" valign="baseline" font-family="Garamond" font-size="22.000000" font-weight="normal" font-style="normal">Gabriel's ell</credit-words>
	</credit>
	<credit>
		<credit-type>composer</credit-type>
		<credit-words  default-x="1146.030" default-y="1608.204" justify="left" valign="baseline" font-family="Garamond" font-size="10.000000" font-weight="normal" font-style="normal">Music: Peter Yost</credit-words>
	</credit>
	<part-list>
		<part-group type="start" number="1">
			<group-symbol default-x="-13.20">brace</group-symbol>
			<group-barline>no</group-barline>
		</part-group>
		<score-part id="P1">
			<part-name></part-name>
			<score-instrument id="P1-I1">
				<instrument-name>Instrument 1</instrument-name>
			</score-instrument>
			<midi-instrument id="P1-I1">
				<midi-channel>1</midi-channel>
				<midi-bank>1</midi-bank>
				<midi-program>1</midi-program>
			</midi-instrument>
		</score-part>
		<score-part id="P2">
			<part-name></part-name>
			<score-instrument id="P2-I1">
				<instrument-name>Instrument 2</instrument-name>
			</score-instrument>
			<midi-instrument id="P2-I1">
				<midi-channel>2</midi-channel>
				<midi-bank>1</midi-bank>
				<midi-program>1</midi-program>
			</midi-instrument>
		</score-part>
		<part-group type="stop" number="1"/>
	</part-list>
	<part id="P1">
		<!--==========================[1,1]=============================-->
		<measure number="1" width="214">
			<sound tempo="80" />
			<print new-page="yes">
				<system-layout>
					<system-margins>
						<left-margin>17.263</left-margin>
						<right-margin>478.189</right-margin>
					</system-margins>
					<top-system-distance>317.673</top-system-distance>
				</system-layout>
			</print>
			<attributes>
				<divisions>6720</divisions>
				<time>
					<beats>5</beats>
					<beat-type>8</beat-type>
				</time>
				<clef number="1">
					<sign>G</sign>
					<line>2</line>
				</clef>
				<staff-details number="1" print-object="yes">
					<staff-lines>5</staff-lines>
					<staff-size>100.00</staff-size>
				</staff-details>
			</attributes>
			<direction placement="below">
				<direction-type><words font-family="Arial" font-size="8.500000" font-weight="normal" font-style="normal" relative-x="69.15" default-y="-75.76">A vema ri a,</words></direction-type>
			</direction>
			<note>
				<pitch>
					<step>D</step>
					<octave>4</octave>
				</pitch>
				<duration>3360</duration>
				<voice>1</voice>
				<type>eighth</type>
				<stem default-y="-10.08">up</stem>
			</note>
			<note>
				<pitch>
					<step>D</step>
					<octave>4</octave>
				</pitch>
				<duration>3360</duration>
				<voice>1</voice>
				<type>eighth</type>
				<stem default-y="-10.08">up</stem>
			</note>
			<note>
				<pitch>
					<step>D</step>
					<octave>4</octave>
				</pitch>
				<duration>3360</duration>
				<voice>1</voice>
				<type>eighth</type>
				<stem default-y="-10.08">up</stem>
			</note>
			<note>
				<pitch>
					<step>B</step>
					<octave>4</octave>
				</pitch>
				<duration>3360</duration>
				<voice>1</voice>
				<type>eighth</type>
				<stem default-y="6.90">up</stem>
				<beam number="1">begin</beam>
			</note>
			<note>
				<pitch>
					<step>A</step>
					<octave>4</octave>
				</pitch>
				<duration>3360</duration>
				<voice>1</voice>
				<type>eighth</type>
				<stem default-y="4.50">up</stem>
				<beam number="1">end</beam>
			</note>
		</measure>
		<!--==========================[1,2]=============================-->
		<measure number="2" width="220">
			<direction placement="below">
				<direction-type><words font-family="Arial" font-size="8.500000" font-weight="normal" font-style="normal" relative-x="23.19" default-y="-75.76">gra ti a ple</words></direction-type>
			</direction>
			<note>
				<pitch>
					<step>D</step>
					<octave>4</octave>
				</pitch>
				<duration>3360</duration>
				<voice>1</voice>
				<type>eighth</type>
				<stem default-y="-10.08">up</stem>
			</note>
			<note>
				<pitch>
					<step>D</step>
					<octave>4</octave>
				</pitch>
				<duration>3360</duration>
				<voice>1</voice>
				<type>eighth</type>
				<stem default-y="-10.08">up</stem>
			</note>
			<note>
				<pitch>
					<step>D</step>
					<octave>4</octave>
				</pitch>
				<duration>3360</duration>
				<voice>1</voice>
				<type>eighth</type>
				<stem default-y="-10.08">up</stem>
			</note>
			<note>
				<pitch>
					<step>B</step>
					<octave>4</octave>
				</pitch>
				<duration>3360</duration>
				<voice>1</voice>
				<type>eighth</type>
				<stem default-y="6.90">up</stem>
				<beam number="1">begin</beam>
				<notations>
					<slur type="start" number="1" placement="below" orientation="under"/>
				</notations>
			</note>
			<forward>
				<duration>2940</duration>
			</forward>
			<direction placement="below">
				<direction-type><words font-family="Arial" font-size="8.500000" font-weight="normal" font-style="normal" relative-x="0.00" default-y="-75.76">na</words></direction-type>
			</direction>
			<backup>
				<duration>2940</duration>
			</backup>
			<note>
				<pitch>
					<step>A</step>
					<octave>4</octave>
				</pitch>
				<duration>3360</duration>
				<voice>1</voice>
				<type>eighth</type>
				<stem default-y="4.50">up</stem>
				<beam number="1">end</beam>
				<notations>
					<slur type="stop" number="1"/>
				</notations>
			</note>
			<note>
				<pitch>
					<step>C</step>
					<octave>5</octave>
				</pitch>
				<duration>3360</duration>
				<voice>1</voice>
				<type>eighth</type>
				<stem default-y="-45.60">down</stem>
				<beam number="1">begin</beam>
				<notations>
					<slur type="start" number="1" placement="above" orientation="over"/>
				</notations>
			</note>
			<note>
				<pitch>
					<step>B</step>
					<octave>4</octave>
				</pitch>
				<duration>3360</duration>
				<voice>1</voice>
				<type>eighth</type>
				<stem default-y="-48.00">down</stem>
				<beam number="1">end</beam>
				<notations>
					<slur type="stop" number="1"/>
				</notations>
			</note>
		</measure>
		<!--==========================[1,3]=============================-->
		<measure number="3" width="185">
			<direction placement="below">
				<direction-type><words font-family="Arial" font-size="8.500000" font-weight="normal" font-style="normal" relative-x="4.83" default-y="-75.76">Dominustecum</words></direction-type>
			</direction>
			<note>
				<pitch>
					<step>A</step>
					<octave>4</octave>
				</pitch>
				<duration>3360</duration>
				<voice>1</voice>
				<type>eighth</type>
				<stem default-y="1.93">up</stem>
				<beam number="1">begin</beam>
			</note>
			<note>
				<pitch>
					<step>G</step>
					<octave>4</octave>
				</pitch>
				<duration>3360</duration>
				<voice>1</voice>
				<type>eighth</type>
				<stem default-y="0.78">up</stem>
				<beam number="1">continue</beam>
			</note>
			<note>
				<pitch>
					<step>G</step>
					<octave>4</octave>
				</pitch>
				<duration>3360</duration>
				<voice>1</voice>
				<type>eighth</type>
				<stem default-y="-0.53">up</stem>
				<beam number="1">end</beam>
			</note>
			<note>
				<pitch>
					<step>A</step>
					<octave>4</octave>
				</pitch>
				<duration>3360</duration>
				<voice>1</voice>
				<type>eighth</type>
				<stem default-y="7.42">up</stem>
			</note>
			<note>
				<pitch>
					<step>B</step>
					<octave>4</octave>
				</pitch>
				<duration>10080</duration>
				<voice>1</voice>
				<type>quarter</type>
				<dot/>
				<stem default-y="-50.55">down</stem>
				<notations>
					<slur type="start" number="1" placement="above" orientation="over"/>
				</notations>
			</note>
		</measure>
		<!--==========================[1,4]=============================-->
		<measure number="4" width="135">
			<note>
				<pitch>
					<step>B</step>
					<octave>4</octave>
				</pitch>
				<duration>3360</duration>
				<voice>1</voice>
				<type>eighth</type>
				<stem default-y="-53.54">down</stem>
				<notations>
					<slur type="stop" number="1"/>
				</notations>
			</note>
			<note>
				<rest>
				</rest>
				<duration>13440</duration>
				<voice>1</voice>
				<type>half</type>
			</note>
			<note>
				<rest>
				</rest>
				<duration>6720</duration>
				<voice>1</voice>
				<type>quarter</type>
			</note>
		</measure>
		<!--==========================[1,5]=============================-->
		<measure number="5" width="212">
			<print new-system="yes">
				<system-layout>
					<system-margins>
						<left-margin>17.263</left-margin>
						<right-margin>43.984</right-margin>
					</system-margins>
					<system-distance>150.000</system-distance>
				</system-layout>
			</print>
			<attributes>
				<time>
					<beats>5</beats>
					<beat-type>8</beat-type>
				</time>
				<staff-details number="1" print-object="yes">
				</staff-details>
			</attributes>
			<direction placement="above">
				<direction-type><words font-family="GoldenCockerelITCStd" font-size="8.500000" font-weight="normal" font-style="italic" relative-x="73.92" default-y="19.45">full</words></direction-type>
			</direction>
			<note>
				<pitch>
					<step>D</step>
					<octave>4</octave>
				</pitch>
				<duration>3360</duration>
				<voice>1</voice>
				<type>eighth</type>
				<stem default-y="-10.08">up</stem>
				<notations>
					<slur type="start" number="1" placement="above" orientation="over"/>
				</notations>
			</note>
			<backup>
				<duration>3360</duration>
			</backup>
			<note>
				<pitch>
					<step>D</step>
					<octave>4</octave>
				</pitch>
				<duration>3360</duration>
				<voice>2</voice>
				<type>eighth</type>
				<stem default-y="-70.55">down</stem>
				<beam number="1">begin</beam>
			</note>
			<note>
				<pitch>
					<step>D</step>
					<octave>4</octave>
				</pitch>
				<duration>3360</duration>
				<voice>2</voice>
				<type>eighth</type>
				<stem default-y="-70.55">down</stem>
				<beam number="1">continue</beam>
			</note>
			<note>
				<pitch>
					<step>D</step>
					<octave>4</octave>
				</pitch>
				<duration>3360</duration>
				<voice>2</voice>
				<type>eighth</type>
				<stem default-y="-70.55">down</stem>
				<beam number="1">end</beam>
			</note>
			<backup>
				<duration>6720</duration>
			</backup>
			<note>
				<pitch>
					<step>D</step>
					<octave>4</octave>
				</pitch>
				<duration>3360</duration>
				<voice>1</voice>
				<type>eighth</type>
				<stem default-y="-10.08">up</stem>
			</note>
			<note>
				<pitch>
					<step>D</step>
					<octave>4</octave>
				</pitch>
				<duration>3360</duration>
				<voice>1</voice>
				<type>eighth</type>
				<stem default-y="-10.08">up</stem>
			</note>
			<note>
				<pitch>
					<step>B</step>
					<octave>4</octave>
				</pitch>
				<duration>3360</duration>
				<voice>1</voice>
				<type>eighth</type>
				<stem default-y="6.89">up</stem>
				<beam number="1">begin</beam>
				<notations>
					<slur type="start" number="2" placement="above" orientation="over"/>
				</notations>
			</note>
			<note>
				<pitch>
					<step>A</step>
					<octave>4</octave>
				</pitch>
				<duration>3360</duration>
				<voice>1</voice>
				<type>eighth</type>
				<stem default-y="4.51">up</stem>
				<beam number="1">end</beam>
				<notations>
					<slur type="stop" number="2"/>
				</notations>
			</note>
			<backup>
				<duration>6720</duration>
			</backup>
			<note>
				<pitch>
					<step>D</step>
					<octave>4</octave>
				</pitch>
				<duration>6720</duration>
				<voice>2</voice>
				<type>quarter</type>
				<stem default-y="-70.55">down</stem>
			</note>
		</measure>
		<!--==========================[1,6]=============================-->
		<measure number="6" width="166">
			<note>
				<pitch>
					<step>D</step>
					<octave>4</octave>
				</pitch>
				<duration>3360</duration>
				<voice>1</voice>
				<type>eighth</type>
				<stem default-y="-10.08">up</stem>
			</note>
			<backup>
				<duration>3360</duration>
			</backup>
			<note>
				<pitch>
					<step>D</step>
					<octave>4</octave>
				</pitch>
				<duration>3360</duration>
				<voice>2</voice>
				<type>eighth</type>
				<stem default-y="-70.55">down</stem>
				<beam number="1">begin</beam>
			</note>
			<note>
				<pitch>
					<step>D</step>
					<octave>4</octave>
				</pitch>
				<duration>3360</duration>
				<voice>2</voice>
				<type>eighth</type>
				<stem default-y="-70.55">down</stem>
				<beam number="1">continue</beam>
			</note>
			<note>
				<pitch>
					<step>D</step>
					<octave>4</octave>
				</pitch>
				<duration>3360</duration>
				<voice>2</voice>
				<type>eighth</type>
				<stem default-y="-70.55">down</stem>
				<beam number="1">end</beam>
			</note>
			<backup>
				<duration>6720</duration>
			</backup>
			<note>
				<pitch>
					<step>D</step>
					<octave>4</octave>
				</pitch>
				<duration>3360</duration>
				<voice>1</voice>
				<type>eighth</type>
				<stem default-y="-10.08">up</stem>
			</note>
			<note>
				<pitch>
					<step>D</step>
					<octave>4</octave>
				</pitch>
				<duration>3360</duration>
				<voice>1</voice>
				<type>eighth</type>
				<stem default-y="-10.08">up</stem>
			</note>
			<note>
				<pitch>
					<step>B</step>
					<octave>4</octave>
				</pitch>
				<duration>3360</duration>
				<voice>1</voice>
				<type>eighth</type>
				<stem default-y="6.90">up</stem>
				<beam number="1">begin</beam>
			</note>
			<note>
				<pitch>
					<step>A</step>
					<octave>4</octave>
				</pitch>
				<duration>3360</duration>
				<voice>1</voice>
				<type>eighth</type>
				<stem default-y="4.50">up</stem>
				<beam number="1">end</beam>
			</note>
			<backup>
				<duration>6720</duration>
			</backup>
			<note>
				<pitch>
					<step>D</step>
					<octave>4</octave>
				</pitch>
				<duration>3360</duration>
				<voice>2</voice>
				<type>eighth</type>
				<stem default-y="-70.55">down</stem>
				<beam number="1">begin</beam>
			</note>
			<note>
				<pitch>
					<step>D</step>
					<octave>4</octave>
				</pitch>
				<duration>3360</duration>
				<voice>2</voice>
				<type>eighth</type>
				<stem default-y="-70.55">down</stem>
				<beam number="1">end</beam>
			</note>
		</measure>
		<!--==========================[1,7]=============================-->
		<measure number="7" width="226">
			<note>
				<pitch>
					<step>C</step>
					<octave>5</octave>
				</pitch>
				<duration>3360</duration>
				<voice>1</voice>
				<type>eighth</type>
				<stem default-y="11.90">up</stem>
				<beam number="1">begin</beam>
			</note>
			<note>
				<pitch>
					<step>B</step>
					<octave>4</octave>
				</pitch>
				<duration>3360</duration>
				<voice>1</voice>
				<type>eighth</type>
				<stem default-y="9.50">up</stem>
				<beam number="1">end</beam>
			</note>
			<backup>
				<duration>6720</duration>
			</backup>
			<note>
				<pitch>
					<step>D</step>
					<octave>4</octave>
				</pitch>
				<duration>3360</duration>
				<voice>2</voice>
				<type>eighth</type>
				<stem default-y="-70.55">down</stem>
				<beam number="1">begin</beam>
			</note>
			<note>
				<pitch>
					<step>D</step>
					<octave>4</octave>
				</pitch>
				<duration>3360</duration>
				<voice>2</voice>
				<type>eighth</type>
				<stem default-y="-70.55">down</stem>
				<beam number="1">end</beam>
			</note>
			<note>
				<pitch>
					<step>A</step>
					<octave>4</octave>
				</pitch>
				<duration>3360</duration>
				<voice>1</voice>
				<type>eighth</type>
				<stem default-y="1.91">up</stem>
				<beam number="1">begin</beam>
			</note>
			<note>
				<pitch>
					<step>G</step>
					<octave>4</octave>
				</pitch>
				<duration>3360</duration>
				<voice>1</voice>
				<type>eighth</type>
				<stem default-y="-0.51">up</stem>
				<beam number="1">end</beam>
			</note>
			<backup>
				<duration>6720</duration>
			</backup>
			<note>
				<pitch>
					<step>C</step>
					<octave>4</octave>
				</pitch>
				<duration>3360</duration>
				<voice>2</voice>
				<type>eighth</type>
				<stem default-y="-75.55">down</stem>
				<beam number="1">begin</beam>
			</note>
			<note>
				<pitch>
					<step>C</step>
					<octave>4</octave>
				</pitch>
				<duration>3360</duration>
				<voice>2</voice>
				<type>eighth</type>
				<stem default-y="-75.55">down</stem>
				<beam number="1">end</beam>
			</note>
			<note>
				<pitch>
					<step>G</step>
					<octave>4</octave>
				</pitch>
				<duration>3360</duration>
				<voice>1</voice>
				<type>eighth</type>
				<stem default-y="-0.48">up</stem>
				<beam number="1">begin</beam>
				<notations>
					<slur type="start" number="2" placement="above" orientation="over"/>
				</notations>
			</note>
			<note>
				<pitch>
					<step>A</step>
					<octave>4</octave>
				</pitch>
				<duration>3360</duration>
				<voice>1</voice>
				<type>eighth</type>
				<stem default-y="1.88">up</stem>
				<beam number="1">end</beam>
				<notations>
					<slur type="stop" number="2"/>
				</notations>
			</note>
			<backup>
				<duration>6720</duration>
			</backup>
			<note>
				<pitch>
					<step>C</step>
					<octave>4</octave>
				</pitch>
				<duration>3360</duration>
				<voice>2</voice>
				<type>eighth</type>
				<stem default-y="-75.48">down</stem>
				<beam number="1">begin</beam>
				<notations>
					<slur type="start" number="2" placement="below" orientation="under"/>
				</notations>
			</note>
			<note>
				<pitch>
					<step>D</step>
					<octave>4</octave>
				</pitch>
				<duration>3360</duration>
				<voice>2</voice>
				<type>eighth</type>
				<stem default-y="-73.12">down</stem>
				<beam number="1">end</beam>
				<notations>
					<slur type="stop" number="2"/>
				</notations>
			</note>
			<note>
				<pitch>
					<step>B</step>
					<octave>4</octave>
				</pitch>
				<duration>13440</duration>
				<voice>1</voice>
				<type>half</type>
				<stem default-y="9.45">up</stem>
				<notations>
					<slur type="stop" number="1"/>
				</notations>
			</note>
			<backup>
				<duration>13440</duration>
			</backup>
			<note>
				<pitch>
					<step>D</step>
					<octave>4</octave>
				</pitch>
				<duration>13440</duration>
				<voice>2</voice>
				<type>half</type>
				<stem default-y="-70.55">down</stem>
			</note>
		</measure>
		<!--==========================[1,8]=============================-->
		<measure number="8" width="224">
			<direction placement="above">
				<direction-type><words font-family="GoldenCockerelITCStd" font-size="8.500000" font-weight="normal" font-style="italic" relative-x="31.41" default-y="39.37">Slowingslightly</words></direction-type>
			</direction>
			<note>
				<pitch>
					<step>B</step>
					<octave>4</octave>
				</pitch>
				<duration>3360</duration>
				<voice>1</voice>
				<type>eighth</type>
				<stem default-y="12.00">up</stem>
				<beam number="1">begin</beam>
				<notations>
					<slur type="start" number="1" placement="above" orientation="over"/>
				</notations>
			</note>
			<note>
				<pitch>
					<step>D</step>
					<octave>5</octave>
				</pitch>
				<duration>3360</duration>
				<voice>1</voice>
				<type>eighth</type>
				<stem default-y="14.40">up</stem>
				<beam number="1">end</beam>
			</note>
			<backup>
				<duration>6720</duration>
			</backup>
			<note>
				<pitch>
					<step>D</step>
					<octave>4</octave>
				</pitch>
				<duration>3360</duration>
				<voice>2</voice>
				<type>eighth</type>
				<stem default-y="-70.50">down</stem>
				<notehead parentheses="yes">normal</notehead>
				<beam number="1">begin</beam>
			</note>
			<note>
				<pitch>
					<step>G</step>
					<octave>4</octave>
				</pitch>
				<duration>3360</duration>
				<voice>2</voice>
				<type>eighth</type>
				<stem default-y="-68.10">down</stem>
				<beam number="1">end</beam>
			</note>
			<note>
				<pitch>
					<step>C</step>
					<octave>5</octave>
				</pitch>
				<duration>3360</duration>
				<voice>1</voice>
				<type>eighth</type>
				<stem default-y="11.91">up</stem>
				<beam number="1">begin</beam>
			</note>
			<note>
				<pitch>
					<step>B</step>
					<octave>4</octave>
				</pitch>
				<duration>3360</duration>
				<voice>1</voice>
				<type>eighth</type>
				<stem default-y="9.49">up</stem>
				<beam number="1">end</beam>
			</note>
			<backup>
				<duration>6720</duration>
			</backup>
			<note>
				<pitch>
					<step>E</step>
					<octave>4</octave>
				</pitch>
				<duration>3360</duration>
				<voice>2</voice>
				<type>eighth</type>
				<stem default-y="-65.51">down</stem>
				<beam number="1">begin</beam>
			</note>
			<note>
				<pitch>
					<step>G</step>
					<octave>4</octave>
				</pitch>
				<duration>3360</duration>
				<voice>2</voice>
				<type>eighth</type>
				<stem default-y="-63.09">down</stem>
				<beam number="1">end</beam>
			</note>
			<note>
				<pitch>
					<step>A</step>
					<octave>4</octave>
				</pitch>
				<duration>3360</duration>
				<voice>1</voice>
				<type>eighth</type>
				<stem default-y="7.42">up</stem>
			</note>
			<backup>
				<duration>3360</duration>
			</backup>
			<note>
				<pitch>
					<step>F</step>
					<octave>4</octave>
				</pitch>
				<duration>3360</duration>
				<voice>2</voice>
				<type>eighth</type>
				<accidental relative-x="6.16">natural</accidental>
				<stem default-y="-68.54">down</stem>
			</note>
			<note>
				<pitch>
					<step>G</step>
					<octave>4</octave>
				</pitch>
				<duration>6720</duration>
				<voice>1</voice>
				<type>quarter</type>
				<stem default-y="4.45">up</stem>
				<notations>
					<slur type="stop" number="1"/>
					<articulations>
						<breath-mark placement="above" relative-x="23.26" relative-y="1.42"/>
					</articulations>
				</notations>
			</note>
			<backup>
				<duration>6720</duration>
			</backup>
			<note>
				<pitch>
					<step>D</step>
					<octave>4</octave>
				</pitch>
				<duration>6720</duration>
				<voice>2</voice>
				<type>quarter</type>
				<stem default-y="-70.55">down</stem>
			</note>
		</measure>
		<!--==========================[1,9]=============================-->
		<measure number="9" width="274">
			<direction placement="above">
				<direction-type><words font-family="Arial" font-size="8.500000" font-weight="normal" font-style="normal" relative-x="40.73" default-y="24.86">So nat hæccampa na</words></direction-type>
			</direction>
			<note>
				<pitch>
					<step>B</step>
					<octave>4</octave>
				</pitch>
				<duration>3360</duration>
				<voice>1</voice>
				<type>eighth</type>
				<stem default-y="14.45">up</stem>
				<beam number="1">begin</beam>
			</note>
			<note>
				<pitch>
					<step>C</step>
					<octave>5</octave>
				</pitch>
				<duration>3360</duration>
				<voice>1</voice>
				<type>eighth</type>
				<stem default-y="14.45">up</stem>
				<beam number="1">continue</beam>
			</note>
			<note>
				<pitch>
					<step>A</step>
					<octave>4</octave>
				</pitch>
				<duration>3360</duration>
				<voice>1</voice>
				<type>eighth</type>
				<stem default-y="14.45">up</stem>
				<beam number="1">continue</beam>
			</note>
			<note>
				<pitch>
					<step>G</step>
					<octave>4</octave>
				</pitch>
				<duration>3360</duration>
				<voice>1</voice>
				<type>eighth</type>
				<stem default-y="14.45">up</stem>
				<beam number="1">end</beam>
			</note>
			<backup>
				<duration>13440</duration>
			</backup>
			<note>
				<pitch>
					<step>D</step>
					<octave>4</octave>
				</pitch>
				<duration>10080</duration>
				<tie type="start"/>
				<voice>1</voice>
				<type>quarter</type>
				<dot/>
				<stem default-y="-70.55">down</stem>
				<notations>
					<tied type="start" number="1" placement="below" orientation="under"/>
				</notations>
			</note>
			<note>
				<pitch>
					<step>D</step>
					<octave>4</octave>
				</pitch>
				<duration>10080</duration>
				<tie type="stop"/>
				<voice>1</voice>
				<type>quarter</type>
				<dot/>
				<stem default-y="-70.55">down</stem>
				<notations>
					<tied type="stop" number="1"/>
				</notations>
			</note>
			<backup>
				<duration>6720</duration>
			</backup>
			<note>
				<pitch>
					<step>F</step>
					<octave>4</octave>
				</pitch>
				<duration>3360</duration>
				<voice>1</voice>
				<type>eighth</type>
				<stem default-y="-8.12">up</stem>
				<beam number="1">begin</beam>
				<notations>
					<slur type="start" number="1" placement="above" orientation="over"/>
				</notations>
			</note>
			<note>
				<pitch>
					<step>E</step>
					<octave>4</octave>
				</pitch>
				<duration>3360</duration>
				<voice>1</voice>
				<type>eighth</type>
				<stem default-y="-10.48">up</stem>
				<beam number="1">end</beam>
				<notations>
					<slur type="stop" number="1"/>
				</notations>
			</note>
			<note>
				<pitch>
					<step>D</step>
					<octave>4</octave>
				</pitch>
				<duration>13440</duration>
				<voice>1</voice>
				<type>half</type>
				<stem default-y="-10.55">up</stem>
			</note>
		</measure>
		<!--==========================[1,10]=============================-->
		<measure number="10" width="86">
			<note>
				<pitch>
					<step>G</step>
					<octave>4</octave>
				</pitch>
				<duration>6720</duration>
				<voice>1</voice>
				<type>quarter</type>
				<stem default-y="4.45">up</stem>
				<notations>
					<articulations>
						<tenuto placement="above" relative-x="3.41" relative-y="0.92"/>
					</articulations>
				</notations>
			</note>
			<backup>
				<duration>6720</duration>
			</backup>
			<note>
				<pitch>
					<step>D</step>
					<octave>4</octave>
				</pitch>
				<duration>6720</duration>
				<voice>2</voice>
				<type>quarter</type>
				<stem default-y="-75.54">down</stem>
				<notations>
					<articulations>
						<tenuto placement="below" relative-x="-2.54" relative-y="4.07"/>
					</articulations>
				</notations>
			</note>
			<note>
				<pitch>
					<step>G</step>
					<octave>4</octave>
				</pitch>
				<duration>6720</duration>
				<voice>1</voice>
				<type>quarter</type>
				<stem default-y="4.45">up</stem>
				<notations>
					<articulations>
						<tenuto placement="above" relative-x="3.41" relative-y="0.92"/>
					</articulations>
				</notations>
			</note>
			<backup>
				<duration>6720</duration>
			</backup>
			<note>
				<pitch>
					<step>D</step>
					<octave>4</octave>
				</pitch>
				<duration>6720</duration>
				<voice>2</voice>
				<type>quarter</type>
				<stem default-y="-75.54">down</stem>
				<notations>
					<articulations>
						<tenuto placement="below" relative-x="-2.54" relative-y="4.07"/>
					</articulations>
				</notations>
			</note>
			<note>
				<pitch>
					<step>A</step>
					<octave>4</octave>
				</pitch>
				<duration>20160</duration>
				<voice>1</voice>
				<type>half</type>
				<dot/>
				<stem default-y="6.95">up</stem>
			</note>
			<backup>
				<duration>20160</duration>
			</backup>
			<note>
				<pitch>
					<step>D</step>
					<octave>4</octave>
				</pitch>
				<duration>20160</duration>
				<voice>2</voice>
				<type>half</type>
				<dot/>
				<stem default-y="-70.55">down</stem>
			</note>
		</measure>
		<!--==========================[1,11]=============================-->
		<measure number="11" width="164">
			<print new-system="yes">
				<system-layout>
					<system-margins>
						<left-margin>17.263</left-margin>
						<right-margin>45.112</right-margin>
					</system-margins>
					<system-distance>150.000</system-distance>
				</system-layout>
			</print>
			<attributes>
				<time>
					<beats>5</beats>
					<beat-type>8</beat-type>
				</time>
				<staff-details number="1" print-object="yes">
				</staff-details>
			</attributes>
			<direction placement="above">
				<direction-type><words font-family="GoldenCockerelITCStd" font-size="8.500000" font-weight="normal" font-style="italic" relative-x="71.04" default-y="19.45">a tempo</words></direction-type>
			</direction>
			<note>
				<pitch>
					<step>D</step>
					<octave>4</octave>
				</pitch>
				<duration>10080</duration>
				<voice>1</voice>
				<type>quarter</type>
				<dot/>
				<stem default-y="-10.55">up</stem>
			</note>
			<note>
				<pitch>
					<step>D</step>
					<octave>4</octave>
				</pitch>
				<duration>6720</duration>
				<voice>1</voice>
				<type>quarter</type>
				<stem default-y="-10.55">up</stem>
			</note>
		</measure>
		<!--==========================[1,12]=============================-->
		<measure number="12" width="95">
			<note>
				<pitch>
					<step>D</step>
					<octave>5</octave>
				</pitch>
				<duration>10080</duration>
				<voice>1</voice>
				<type>quarter</type>
				<dot/>
				<stem default-y="14.45">up</stem>
			</note>
			<backup>
				<duration>10080</duration>
			</backup>
			<note>
				<pitch>
					<step>B</step>
					<octave>4</octave>
				</pitch>
				<duration>10080</duration>
				<voice>2</voice>
				<type>quarter</type>
				<dot/>
				<stem default-y="-50.55">down</stem>
			</note>
			<note>
				<pitch>
					<step>D</step>
					<octave>5</octave>
				</pitch>
				<duration>6720</duration>
				<tie type="start"/>
				<voice>1</voice>
				<type>quarter</type>
				<stem default-y="14.45">up</stem>
				<notations>
					<tied type="start" number="1" placement="above" orientation="over"/>
				</notations>
			</note>
			<backup>
				<duration>6720</duration>
			</backup>
			<note>
				<pitch>
					<step>B</step>
					<octave>4</octave>
				</pitch>
				<duration>6720</duration>
				<voice>2</voice>
				<type>quarter</type>
				<stem default-y="-50.55">down</stem>
				<notations>
					<slur type="start" number="1" placement="below" orientation="under"/>
				</notations>
			</note>
		</measure>
		<!--==========================[1,13]=============================-->
		<measure number="13" width="95">
			<note>
				<pitch>
					<step>D</step>
					<octave>5</octave>
				</pitch>
				<duration>10080</duration>
				<tie type="stop"/>
				<voice>1</voice>
				<type>quarter</type>
				<dot/>
				<stem default-y="14.45">up</stem>
				<notations>
					<tied type="stop" number="1"/>
				</notations>
			</note>
			<backup>
				<duration>10080</duration>
			</backup>
			<note>
				<pitch>
					<step>C</step>
					<octave>5</octave>
				</pitch>
				<duration>10080</duration>
				<voice>2</voice>
				<type>quarter</type>
				<dot/>
				<stem default-y="-48.05">down</stem>
				<notations>
					<slur type="stop" number="1"/>
				</notations>
			</note>
			<note>
				<pitch>
					<step>D</step>
					<octave>5</octave>
				</pitch>
				<duration>6720</duration>
				<voice>1</voice>
				<type>quarter</type>
				<stem default-y="14.45">up</stem>
			</note>
			<backup>
				<duration>6720</duration>
			</backup>
			<note>
				<pitch>
					<step>B</step>
					<octave>4</octave>
				</pitch>
				<duration>6720</duration>
				<voice>2</voice>
				<type>quarter</type>
				<stem default-y="-50.55">down</stem>
			</note>
		</measure>
		<!--==========================[1,14]=============================-->
		<measure number="14" width="122">
			<note>
				<pitch>
					<step>D</step>
					<octave>5</octave>
				</pitch>
				<duration>3360</duration>
				<voice>1</voice>
				<type>eighth</type>
				<stem default-y="14.42">up</stem>
				<beam number="1">begin</beam>
			</note>
			<note>
				<pitch>
					<step>C</step>
					<octave>5</octave>
				</pitch>
				<duration>3360</duration>
				<tie type="start"/>
				<voice>1</voice>
				<type>eighth</type>
				<stem default-y="13.20">up</stem>
				<beam number="1">continue</beam>
				<notations>
					<tied type="start" number="1" placement="above" orientation="over"/>
				</notations>
			</note>
			<note>
				<pitch>
					<step>C</step>
					<octave>5</octave>
				</pitch>
				<duration>3360</duration>
				<tie type="start"/>
				<tie type="stop"/>
				<voice>1</voice>
				<type>eighth</type>
				<stem default-y="11.98">up</stem>
				<beam number="1">end</beam>
				<notations>
					<tied type="start" number="2" placement="above" orientation="over"/>
					<tied type="stop" number="1"/>
				</notations>
			</note>
			<backup>
				<duration>10080</duration>
			</backup>
			<note>
				<pitch>
					<step>A</step>
					<octave>4</octave>
				</pitch>
				<duration>10080</duration>
				<tie type="start"/>
				<voice>2</voice>
				<type>quarter</type>
				<dot/>
				<stem default-y="-53.05">down</stem>
				<notations>
					<tied type="start" number="1" placement="below" orientation="under"/>
				</notations>
			</note>
			<note>
				<pitch>
					<step>C</step>
					<octave>5</octave>
				</pitch>
				<duration>6720</duration>
				<tie type="stop"/>
				<voice>1</voice>
				<type>quarter</type>
				<stem default-y="11.95">up</stem>
				<notations>
					<tied type="stop" number="2"/>
				</notations>
			</note>
			<backup>
				<duration>6720</duration>
			</backup>
			<note>
				<pitch>
					<step>A</step>
					<octave>4</octave>
				</pitch>
				<duration>6720</duration>
				<tie type="stop"/>
				<voice>2</voice>
				<type>quarter</type>
				<stem default-y="-53.05">down</stem>
				<notations>
					<tied type="stop" number="1"/>
				</notations>
			</note>
		</measure>
		<!--==========================[1,15]=============================-->
		<measure number="15" width="99">
			<note>
				<pitch>
					<step>C</step>
					<octave>5</octave>
				</pitch>
				<duration>10080</duration>
				<tie type="start"/>
				<voice>1</voice>
				<type>quarter</type>
				<dot/>
				<stem default-y="11.95">up</stem>
				<notations>
					<tied type="start" number="1" placement="above" orientation="over"/>
				</notations>
			</note>
			<backup>
				<duration>10080</duration>
			</backup>
			<note>
				<pitch>
					<step>A</step>
					<octave>4</octave>
				</pitch>
				<duration>10080</duration>
				<tie type="start"/>
				<voice>2</voice>
				<type>quarter</type>
				<dot/>
				<stem default-y="-53.05">down</stem>
				<notations>
					<tied type="start" number="2" placement="below" orientation="under"/>
				</notations>
			</note>
			<note>
				<pitch>
					<step>C</step>
					<octave>5</octave>
				</pitch>
				<duration>6720</duration>
				<tie type="stop"/>
				<voice>1</voice>
				<type>quarter</type>
				<stem default-y="11.95">up</stem>
				<notations>
					<tied type="stop" number="1"/>
					<articulations>
						<breath-mark placement="above" relative-x="23.26" relative-y="-6.08"/>
					</articulations>
				</notations>
			</note>
			<backup>
				<duration>6720</duration>
			</backup>
			<note>
				<pitch>
					<step>A</step>
					<octave>4</octave>
				</pitch>
				<duration>6720</duration>
				<tie type="stop"/>
				<voice>2</voice>
				<type>quarter</type>
				<stem default-y="-53.05">down</stem>
				<notations>
					<tied type="stop" number="2"/>
				</notations>
			</note>
		</measure>
		<!--==========================[1,16]=============================-->
		<measure number="16" width="122">
			<note>
				<pitch>
					<step>C</step>
					<octave>5</octave>
				</pitch>
				<duration>3360</duration>
				<voice>1</voice>
				<type>eighth</type>
				<stem default-y="11.92">up</stem>
				<beam number="1">begin</beam>
			</note>
			<note>
				<pitch>
					<step>B</step>
					<octave>4</octave>
				</pitch>
				<duration>3360</duration>
				<tie type="start"/>
				<voice>1</voice>
				<type>eighth</type>
				<stem default-y="10.70">up</stem>
				<beam number="1">continue</beam>
				<notations>
					<tied type="start" number="1" placement="above" orientation="over"/>
				</notations>
			</note>
			<note>
				<pitch>
					<step>B</step>
					<octave>4</octave>
				</pitch>
				<duration>3360</duration>
				<tie type="stop"/>
				<voice>1</voice>
				<type>eighth</type>
				<stem default-y="9.48">up</stem>
				<beam number="1">end</beam>
				<notations>
					<tied type="stop" number="1"/>
				</notations>
			</note>
			<backup>
				<duration>10080</duration>
			</backup>
			<note>
				<pitch>
					<step>G</step>
					<octave>4</octave>
				</pitch>
				<duration>10080</duration>
				<voice>2</voice>
				<type>quarter</type>
				<dot/>
				<stem default-y="-55.55">down</stem>
			</note>
			<note>
				<pitch>
					<step>B</step>
					<octave>4</octave>
				</pitch>
				<duration>6720</duration>
				<voice>1</voice>
				<type>quarter</type>
				<stem default-y="9.45">up</stem>
			</note>
			<backup>
				<duration>6720</duration>
			</backup>
			<note>
				<pitch>
					<step>G</step>
					<octave>4</octave>
				</pitch>
				<duration>6720</duration>
				<voice>2</voice>
				<type>quarter</type>
				<stem default-y="-55.55">down</stem>
			</note>
		</measure>
		<!--==========================[1,17]=============================-->
		<measure number="17" width="104">
			<forward>
				<duration>3780</duration>
			</forward>
			<direction placement="below">
				<direction-type><words font-family="Arial" font-size="1.500000" font-weight="normal" font-style="normal" relative-x="0.00" default-y="-35.41">.</words></direction-type>
			</direction>
			<backup>
				<duration>3780</duration>
			</backup>
			<note>
				<pitch>
					<step>A</step>
					<octave>4</octave>
				</pitch>
				<duration>6720</duration>
				<tie type="start"/>
				<voice>1</voice>
				<type>quarter</type>
				<stem default-y="6.95">up</stem>
				<notations>
					<tied type="start" number="1" placement="above" orientation="over"/>
				</notations>
			</note>
			<backup>
				<duration>6720</duration>
			</backup>
			<note>
				<pitch>
					<step>G</step>
					<octave>4</octave>
				</pitch>
				<duration>10080</duration>
				<voice>1</voice>
				<type>quarter</type>
				<dot/>
				<stem default-y="-55.55">down</stem>
				<notations>
					<slur type="start" number="1" placement="below" orientation="under"/>
				</notations>
			</note>
			<backup>
				<duration>3360</duration>
			</backup>
			<note>
				<pitch>
					<step>A</step>
					<octave>4</octave>
				</pitch>
				<duration>6720</duration>
				<tie type="stop"/>
				<voice>1</voice>
				<type>quarter</type>
				<stem default-y="6.95">up</stem>
				<notations>
					<tied type="stop" number="1"/>
					<articulations>
						<breath-mark placement="above" relative-x="23.26" relative-y="-1.08"/>
					</articulations>
				</notations>
			</note>
			<backup>
				<duration>6720</duration>
			</backup>
			<note>
				<pitch>
					<step>G</step>
					<octave>4</octave>
				</pitch>
				<duration>6720</duration>
				<voice>1</voice>
				<type>quarter</type>
				<stem default-y="-55.55">down</stem>
				<notations>
					<slur type="stop" number="1"/>
				</notations>
			</note>
		</measure>
		<!--==========================[1,18]=============================-->
		<measure number="18" width="95">
			<note>
				<pitch>
					<step>D</step>
					<octave>4</octave>
				</pitch>
				<duration>10080</duration>
				<voice>1</voice>
				<type>quarter</type>
				<dot/>
				<stem default-y="-10.55">up</stem>
			</note>
			<backup>
				<duration>10080</duration>
			</backup>
			<note>
				<pitch>
					<step>D</step>
					<octave>4</octave>
				</pitch>
				<duration>10080</duration>
				<voice>2</voice>
				<type>quarter</type>
				<dot/>
				<stem default-y="-70.55">down</stem>
			</note>
			<note>
				<pitch>
					<step>D</step>
					<octave>4</octave>
				</pitch>
				<duration>6720</duration>
				<voice>1</voice>
				<type>quarter</type>
				<stem default-y="-10.55">up</stem>
			</note>
			<backup>
				<duration>6720</duration>
			</backup>
			<note>
				<pitch>
					<step>D</step>
					<octave>4</octave>
				</pitch>
				<duration>6720</duration>
				<voice>2</voice>
				<type>quarter</type>
				<stem default-y="-70.55">down</stem>
			</note>
		</measure>
		<!--==========================[1,19]=============================-->
		<measure number="19" width="95">
			<note>
				<pitch>
					<step>G</step>
					<octave>4</octave>
				</pitch>
				<duration>10080</duration>
				<tie type="start"/>
				<voice>1</voice>
				<type>quarter</type>
				<dot/>
				<stem default-y="4.45">up</stem>
				<notations>
					<tied type="start" number="1" placement="above" orientation="over"/>
					<slur type="start" number="1" placement="above" orientation="over"/>
				</notations>
			</note>
			<backup>
				<duration>10080</duration>
			</backup>
			<note>
				<pitch>
					<step>D</step>
					<octave>4</octave>
				</pitch>
				<duration>10080</duration>
				<tie type="start"/>
				<voice>2</voice>
				<type>quarter</type>
				<dot/>
				<stem default-y="-70.55">down</stem>
				<notations>
					<tied type="start" number="2" placement="below" orientation="under"/>
				</notations>
			</note>
			<note>
				<pitch>
					<step>G</step>
					<octave>4</octave>
				</pitch>
				<duration>6720</duration>
				<tie type="stop"/>
				<voice>1</voice>
				<type>quarter</type>
				<stem default-y="4.45">up</stem>
				<notations>
					<tied type="stop" number="1"/>
				</notations>
			</note>
			<backup>
				<duration>6720</duration>
			</backup>
			<note>
				<pitch>
					<step>D</step>
					<octave>4</octave>
				</pitch>
				<duration>6720</duration>
				<tie type="stop"/>
				<voice>2</voice>
				<type>quarter</type>
				<stem default-y="-70.55">down</stem>
				<notations>
					<tied type="stop" number="2"/>
				</notations>
			</note>
		</measure>
		<!--==========================[1,20]=============================-->
		<measure number="20" width="95">
			<note>
				<pitch>
					<step>B</step>
					<octave>4</octave>
				</pitch>
				<duration>10080</duration>
				<tie type="start"/>
				<voice>1</voice>
				<type>quarter</type>
				<dot/>
				<stem default-y="9.45">up</stem>
				<notations>
					<tied type="start" number="1" placement="above" orientation="over"/>
				</notations>
			</note>
			<backup>
				<duration>10080</duration>
			</backup>
			<note>
				<pitch>
					<step>D</step>
					<octave>4</octave>
				</pitch>
				<duration>10080</duration>
				<tie type="start"/>
				<voice>2</voice>
				<type>quarter</type>
				<dot/>
				<stem default-y="-70.55">down</stem>
				<notations>
					<tied type="start" number="2" placement="below" orientation="under"/>
				</notations>
			</note>
			<note>
				<pitch>
					<step>B</step>
					<octave>4</octave>
				</pitch>
				<duration>6720</duration>
				<tie type="stop"/>
				<voice>1</voice>
				<type>quarter</type>
				<stem default-y="9.45">up</stem>
				<notations>
					<tied type="stop" number="1"/>
					<slur type="stop" number="1"/>
				</notations>
			</note>
			<backup>
				<duration>6720</duration>
			</backup>
			<note>
				<pitch>
					<step>D</step>
					<octave>4</octave>
				</pitch>
				<duration>6720</duration>
				<tie type="stop"/>
				<voice>2</voice>
				<type>quarter</type>
				<stem default-y="-70.55">down</stem>
				<notations>
					<tied type="stop" number="2"/>
				</notations>
			</note>
		</measure>
		<!--==========================[1,21]=============================-->
		<measure number="21" width="95">
			<note>
				<pitch>
					<step>A</step>
					<octave>4</octave>
				</pitch>
				<duration>10080</duration>
				<tie type="start"/>
				<voice>1</voice>
				<type>quarter</type>
				<dot/>
				<stem default-y="6.95">up</stem>
				<notations>
					<tied type="start" number="1" placement="above" orientation="over"/>
				</notations>
			</note>
			<backup>
				<duration>10080</duration>
			</backup>
			<note>
				<pitch>
					<step>D</step>
					<octave>4</octave>
				</pitch>
				<duration>10080</duration>
				<tie type="start"/>
				<voice>2</voice>
				<type>quarter</type>
				<dot/>
				<stem default-y="-70.55">down</stem>
				<notations>
					<tied type="start" number="2" placement="below" orientation="under"/>
				</notations>
			</note>
			<note>
				<pitch>
					<step>A</step>
					<octave>4</octave>
				</pitch>
				<duration>6720</duration>
				<tie type="stop"/>
				<voice>1</voice>
				<type>quarter</type>
				<stem default-y="6.95">up</stem>
				<notations>
					<tied type="stop" number="1"/>
				</notations>
			</note>
			<backup>
				<duration>6720</duration>
			</backup>
			<note>
				<pitch>
					<step>D</step>
					<octave>4</octave>
				</pitch>
				<duration>6720</duration>
				<tie type="stop"/>
				<voice>2</voice>
				<type>quarter</type>
				<stem default-y="-70.55">down</stem>
				<notations>
					<tied type="stop" number="2"/>
				</notations>
			</note>
		</measure>
		<!--==========================[1,22]=============================-->
		<measure number="22" width="350">
			<print new-system="yes">
				<system-layout>
					<system-margins>
						<left-margin>17.263</left-margin>
						<right-margin>27.067</right-margin>
					</system-margins>
					<system-distance>150.000</system-distance>
				</system-layout>
			</print>
			<attributes>
				<time>
					<beats>5</beats>
					<beat-type>4</beat-type>
				</time>
				<staff-details number="1" print-object="yes">
				</staff-details>
			</attributes>
			<direction placement="above">
				<direction-type><words font-family="GoldenCockerelITCStd" font-size="8.500000" font-weight="normal" font-style="italic" relative-x="73.17" default-y="30.11">Slower</words></direction-type>
			</direction>
			<note>
				<pitch>
					<step>B</step>
					<octave>4</octave>
				</pitch>
				<duration>3360</duration>
				<voice>1</voice>
				<type>eighth</type>
				<stem default-y="9.52">up</stem>
				<beam number="1">begin</beam>
				<notations>
					<slur type="start" number="1" placement="above" orientation="over"/>
				</notations>
			</note>
			<note>
				<pitch>
					<step>D</step>
					<octave>5</octave>
				</pitch>
				<duration>3360</duration>
				<voice>1</voice>
				<type>eighth</type>
				<stem default-y="14.38">up</stem>
				<beam number="1">end</beam>
			</note>
			<backup>
				<duration>6720</duration>
			</backup>
			<note>
				<pitch>
					<step>D</step>
					<octave>4</octave>
				</pitch>
				<duration>3360</duration>
				<voice>2</voice>
				<type>eighth</type>
				<stem default-y="-70.48">down</stem>
				<beam number="1">begin</beam>
			</note>
			<note>
				<pitch>
					<step>G</step>
					<octave>4</octave>
				</pitch>
				<duration>3360</duration>
				<voice>2</voice>
				<type>eighth</type>
				<stem default-y="-65.62">down</stem>
				<beam number="1">end</beam>
			</note>
			<note>
				<pitch>
					<step>C</step>
					<octave>5</octave>
				</pitch>
				<duration>3360</duration>
				<voice>1</voice>
				<type>eighth</type>
				<stem default-y="11.90">up</stem>
				<beam number="1">begin</beam>
			</note>
			<note>
				<pitch>
					<step>B</step>
					<octave>4</octave>
				</pitch>
				<duration>3360</duration>
				<voice>1</voice>
				<type>eighth</type>
				<stem default-y="9.50">up</stem>
				<beam number="1">end</beam>
			</note>
			<backup>
				<duration>6720</duration>
			</backup>
			<note>
				<pitch>
					<step>E</step>
					<octave>4</octave>
				</pitch>
				<duration>3360</duration>
				<voice>2</voice>
				<type>eighth</type>
				<stem default-y="-65.49">down</stem>
				<beam number="1">begin</beam>
			</note>
			<note>
				<pitch>
					<step>G</step>
					<octave>4</octave>
				</pitch>
				<duration>3360</duration>
				<voice>2</voice>
				<type>eighth</type>
				<stem default-y="-63.10">down</stem>
				<beam number="1">end</beam>
			</note>
			<note>
				<pitch>
					<step>A</step>
					<octave>4</octave>
				</pitch>
				<duration>3360</duration>
				<voice>1</voice>
				<type>eighth</type>
				<stem default-y="1.88">up</stem>
				<beam number="1">begin</beam>
				<notations>
					<slur type="start" number="2" placement="above" orientation="over"/>
				</notations>
			</note>
			<note>
				<pitch>
					<step>G</step>
					<octave>4</octave>
				</pitch>
				<duration>3360</duration>
				<voice>1</voice>
				<type>eighth</type>
				<stem default-y="-0.48">up</stem>
				<beam number="1">end</beam>
				<notations>
					<slur type="stop" number="2"/>
				</notations>
			</note>
			<backup>
				<duration>6720</duration>
			</backup>
			<note>
				<pitch>
					<step>F</step>
					<alter>1</alter>
					<octave>4</octave>
				</pitch>
				<duration>3360</duration>
				<voice>2</voice>
				<type>eighth</type>
				<accidental relative-x="2.18">sharp</accidental>
				<stem default-y="-63.12">down</stem>
				<beam number="1">begin</beam>
				<notations>
					<slur type="start" number="2" placement="below" orientation="under"/>
				</notations>
			</note>
			<note>
				<pitch>
					<step>E</step>
					<octave>4</octave>
				</pitch>
				<duration>3360</duration>
				<voice>2</voice>
				<type>eighth</type>
				<stem default-y="-65.48">down</stem>
				<beam number="1">end</beam>
				<notations>
					<slur type="stop" number="2"/>
				</notations>
			</note>
			<note>
				<pitch>
					<step>A</step>
					<octave>4</octave>
				</pitch>
				<duration>6720</duration>
				<voice>1</voice>
				<type>quarter</type>
				<stem default-y="6.95">up</stem>
				<notations>
					<slur type="stop" number="1"/>
					<articulations>
						<breath-mark placement="above" relative-x="23.26" relative-y="-1.08"/>
					</articulations>
				</notations>
			</note>
			<backup>
				<duration>6720</duration>
			</backup>
			<note>
				<pitch>
					<step>F</step>
					<alter>1</alter>
					<octave>4</octave>
				</pitch>
				<duration>6720</duration>
				<voice>2</voice>
				<type>quarter</type>
				<stem default-y="-60.55">down</stem>
			</note>
			<note>
				<pitch>
					<step>B</step>
					<octave>4</octave>
				</pitch>
				<duration>3360</duration>
				<voice>1</voice>
				<type>eighth</type>
				<stem default-y="6.91">up</stem>
				<beam number="1">begin</beam>
				<notations>
					<slur type="start" number="1" placement="above" orientation="over"/>
				</notations>
			</note>
			<note>
				<pitch>
					<step>G</step>
					<octave>4</octave>
				</pitch>
				<duration>3360</duration>
				<voice>1</voice>
				<type>eighth</type>
				<stem default-y="4.49">up</stem>
				<beam number="1">end</beam>
			</note>
			<backup>
				<duration>6720</duration>
			</backup>
			<note>
				<pitch>
					<step>G</step>
					<octave>4</octave>
				</pitch>
				<duration>3360</duration>
				<voice>2</voice>
				<type>eighth</type>
				<stem default-y="-58.08">down</stem>
				<beam number="1">begin</beam>
			</note>
			<note>
				<pitch>
					<step>F</step>
					<alter>1</alter>
					<octave>4</octave>
				</pitch>
				<duration>3360</duration>
				<voice>2</voice>
				<type>eighth</type>
				<stem default-y="-60.52">down</stem>
				<beam number="1">end</beam>
			</note>
		</measure>
		<!--==========================[1,23]=============================-->
		<measure number="23" width="181">
			<note>
				<pitch>
					<step>G</step>
					<octave>4</octave>
				</pitch>
				<duration>6720</duration>
				<voice>1</voice>
				<type>quarter</type>
				<stem default-y="4.45">up</stem>
				<notations>
					<slur type="start" number="2" placement="above" orientation="over"/>
				</notations>
			</note>
			<backup>
				<duration>6720</duration>
			</backup>
			<note>
				<pitch>
					<step>E</step>
					<octave>4</octave>
				</pitch>
				<duration>6720</duration>
				<voice>1</voice>
				<type>quarter</type>
				<stem default-y="-65.55">down</stem>
				<notations>
					<slur type="start" number="3" placement="below" orientation="under"/>
				</notations>
			</note>
			<note>
				<pitch>
					<step>B</step>
					<octave>4</octave>
				</pitch>
				<duration>6720</duration>
				<voice>1</voice>
				<type>quarter</type>
				<stem default-y="9.45">up</stem>
				<notations>
					<slur type="stop" number="2"/>
				</notations>
			</note>
			<backup>
				<duration>6720</duration>
			</backup>
			<note>
				<pitch>
					<step>D</step>
					<octave>4</octave>
				</pitch>
				<duration>6720</duration>
				<voice>1</voice>
				<type>quarter</type>
				<stem default-y="-70.55">down</stem>
				<notations>
					<slur type="stop" number="3"/>
				</notations>
			</note>
			<note>
				<pitch>
					<step>C</step>
					<octave>5</octave>
				</pitch>
				<duration>6720</duration>
				<voice>1</voice>
				<type>quarter</type>
				<stem default-y="11.95">up</stem>
				<notations>
					<slur type="stop" number="1"/>
				</notations>
			</note>
			<backup>
				<duration>6720</duration>
			</backup>
			<note>
				<pitch>
					<step>E</step>
					<octave>4</octave>
				</pitch>
				<duration>6720</duration>
				<voice>1</voice>
				<type>quarter</type>
				<stem default-y="-65.55">down</stem>
			</note>
			<note>
				<rest>
				</rest>
				<duration>6720</duration>
				<voice>1</voice>
				<type>quarter</type>
			</note>
			<note>
				<pitch>
					<step>A</step>
					<octave>4</octave>
				</pitch>
				<duration>6720</duration>
				<voice>1</voice>
				<type>quarter</type>
				<stem default-y="6.95">up</stem>
			</note>
			<backup>
				<duration>6720</duration>
			</backup>
			<note>
				<pitch>
					<step>D</step>
					<octave>4</octave>
				</pitch>
				<duration>6720</duration>
				<voice>1</voice>
				<type>quarter</type>
				<stem default-y="-70.55">down</stem>
			</note>
		</measure>
		<!--==========================[1,24]=============================-->
		<measure number="24" width="130">
			<note>
				<pitch>
					<step>C</step>
					<octave>5</octave>
				</pitch>
				<duration>6720</duration>
				<voice>1</voice>
				<type>quarter</type>
				<stem default-y="11.95">up</stem>
			</note>
			<backup>
				<duration>6720</duration>
			</backup>
			<note>
				<pitch>
					<step>D</step>
					<octave>4</octave>
				</pitch>
				<duration>6720</duration>
				<voice>1</voice>
				<type>quarter</type>
				<stem default-y="-70.55">down</stem>
			</note>
			<note>
				<rest>
				</rest>
				<duration>6720</duration>
				<voice>1</voice>
				<type>quarter</type>
			</note>
			<note>
				<pitch>
					<step>D</step>
					<octave>4</octave>
				</pitch>
				<duration>6720</duration>
				<voice>1</voice>
				<type>quarter</type>
				<stem default-y="-10.55">up</stem>
			</note>
			<backup>
				<duration>6720</duration>
			</backup>
			<note>
				<pitch>
					<step>D</step>
					<octave>4</octave>
				</pitch>
				<duration>6720</duration>
				<voice>1</voice>
				<type>quarter</type>
				<stem default-y="-70.55">down</stem>
			</note>
		</measure>
		<!--==========================[1,25]=============================-->
		<measure number="25" width="66">
			<note>
				<pitch>
					<step>D</step>
					<octave>5</octave>
				</pitch>
				<duration>20160</duration>
				<voice>1</voice>
				<type>half</type>
				<dot/>
				<stem default-y="14.45">up</stem>
			</note>
			<backup>
				<duration>20160</duration>
			</backup>
			<note>
				<pitch>
					<step>B</step>
					<octave>4</octave>
				</pitch>
				<duration>20160</duration>
				<voice>2</voice>
				<type>half</type>
				<dot/>
				<stem default-y="-50.55">down</stem>
			</note>
		</measure>
		<!--==========================[1,26]=============================-->
		<measure number="26" width="66">
			<note>
				<pitch>
					<step>D</step>
					<octave>5</octave>
				</pitch>
				<duration>20160</duration>
				<voice>1</voice>
				<type>half</type>
				<dot/>
				<stem default-y="14.45">up</stem>
			</note>
			<backup>
				<duration>20160</duration>
			</backup>
			<note>
				<pitch>
					<step>C</step>
					<octave>5</octave>
				</pitch>
				<duration>20160</duration>
				<voice>2</voice>
				<type>half</type>
				<dot/>
				<stem default-y="-48.05">down</stem>
			</note>
		</measure>
		<!--==========================[1,27]=============================-->
		<measure number="27" width="66">
			<note>
				<rest>
				</rest>
				<duration>33600</duration>
				<voice>1</voice>
				<type>whole</type>
			</note>
		</measure>
		<!--==========================[1,28]=============================-->
		<measure number="28" width="188">
			<direction placement="above">
				<direction-type><words font-family="GoldenCockerelITCStd" font-size="8.500000" font-weight="normal" font-style="italic" relative-x="31.41" default-y="19.45">Slower still</words></direction-type>
			</direction>
			<note>
				<pitch>
					<step>D</step>
					<octave>4</octave>
				</pitch>
				<duration>3360</duration>
				<voice>1</voice>
				<type>eighth</type>
				<stem default-y="-10.08">up</stem>
			</note>
			<note>
				<pitch>
					<step>D</step>
					<octave>4</octave>
				</pitch>
				<duration>3360</duration>
				<voice>1</voice>
				<type>eighth</type>
				<stem default-y="-10.08">up</stem>
			</note>
			<note>
				<pitch>
					<step>D</step>
					<octave>4</octave>
				</pitch>
				<duration>3360</duration>
				<voice>1</voice>
				<type>eighth</type>
				<stem default-y="-10.08">up</stem>
			</note>
			<note>
				<pitch>
					<step>B</step>
					<octave>4</octave>
				</pitch>
				<duration>3360</duration>
				<voice>1</voice>
				<type>eighth</type>
				<stem default-y="12.42">up</stem>
			</note>
			<backup>
				<duration>3360</duration>
			</backup>
			<note>
				<pitch>
					<step>D</step>
					<octave>4</octave>
				</pitch>
				<duration>3360</duration>
				<voice>1</voice>
				<type>eighth</type>
				<stem default-y="-78.54">down</stem>
			</note>
			<note>
				<pitch>
					<step>A</step>
					<octave>4</octave>
				</pitch>
				<duration>6720</duration>
				<voice>1</voice>
				<type>quarter</type>
				<stem default-y="6.95">up</stem>
			</note>
			<backup>
				<duration>6720</duration>
			</backup>
			<note>
				<pitch>
					<step>D</step>
					<octave>4</octave>
				</pitch>
				<duration>6720</duration>
				<voice>1</voice>
				<type>quarter</type>
				<stem default-y="-70.55">down</stem>
			</note>
		</measure>
		<!--==========================[1,29]=============================-->
		<measure number="29" width="157">
			<note>
				<pitch>
					<step>D</step>
					<octave>4</octave>
				</pitch>
				<duration>3360</duration>
				<voice>1</voice>
				<type>eighth</type>
				<stem default-y="-10.08">up</stem>
			</note>
			<backup>
				<duration>3360</duration>
			</backup>
			<note>
				<pitch>
					<step>D</step>
					<octave>4</octave>
				</pitch>
				<duration>3360</duration>
				<voice>2</voice>
				<type>eighth</type>
				<stem default-y="-70.55">down</stem>
				<beam number="1">begin</beam>
			</note>
			<note>
				<pitch>
					<step>D</step>
					<octave>4</octave>
				</pitch>
				<duration>3360</duration>
				<voice>2</voice>
				<type>eighth</type>
				<stem default-y="-70.55">down</stem>
				<beam number="1">continue</beam>
			</note>
			<note>
				<pitch>
					<step>D</step>
					<octave>4</octave>
				</pitch>
				<duration>3360</duration>
				<voice>2</voice>
				<type>eighth</type>
				<stem default-y="-70.55">down</stem>
				<beam number="1">end</beam>
			</note>
			<backup>
				<duration>6720</duration>
			</backup>
			<note>
				<pitch>
					<step>E</step>
					<octave>4</octave>
				</pitch>
				<duration>3360</duration>
				<voice>1</voice>
				<type>eighth</type>
				<stem default-y="-5.08">up</stem>
			</note>
			<note>
				<pitch>
					<step>G</step>
					<octave>4</octave>
				</pitch>
				<duration>3360</duration>
				<voice>1</voice>
				<type>eighth</type>
				<stem default-y="4.92">up</stem>
			</note>
			<note>
				<pitch>
					<step>A</step>
					<octave>4</octave>
				</pitch>
				<duration>3360</duration>
				<voice>1</voice>
				<type>eighth</type>
				<stem default-y="7.42">up</stem>
				<notations>
					<articulations>
						<tenuto placement="above" relative-x="3.41" relative-y="0.93"/>
					</articulations>
				</notations>
			</note>
			<backup>
				<duration>3360</duration>
			</backup>
			<note>
				<pitch>
					<step>D</step>
					<octave>4</octave>
				</pitch>
				<duration>3360</duration>
				<voice>2</voice>
				<type>eighth</type>
				<stem default-y="-78.54">down</stem>
				<notations>
					<articulations>
						<tenuto placement="below" relative-x="-2.54" relative-y="-0.91"/>
					</articulations>
				</notations>
			</note>
			<note>
				<pitch>
					<step>G</step>
					<octave>4</octave>
				</pitch>
				<duration>6720</duration>
				<voice>1</voice>
				<type>quarter</type>
				<stem default-y="4.45">up</stem>
			</note>
			<backup>
				<duration>6720</duration>
			</backup>
			<note>
				<pitch>
					<step>D</step>
					<octave>4</octave>
				</pitch>
				<duration>6720</duration>
				<voice>2</voice>
				<type>quarter</type>
				<stem default-y="-70.55">down</stem>
			</note>
			<barline location="right">
				<bar-style>light-heavy</bar-style>
			</barline>
		</measure>
	</part>
	<part id="P2">
		<!--==========================[2,1]=============================-->
		<measure number="1">
			<print new-page="yes">
			</print>
			<attributes>
				<divisions>6720</divisions>
				<staff-details number="1" print-object="yes">
					<staff-lines>5</staff-lines>
				</staff-details>
			</attributes>
		</measure>
		<!--==========================[2,2]=============================-->
		<measure number="2">
		</measure>
		<!--==========================[2,3]=============================-->
		<measure number="3">
		</measure>
		<!--==========================[2,4]=============================-->
		<measure number="4">
		</measure>
		<!--==========================[2,5]=============================-->
		<measure number="5" width="212">
			<print new-system="yes">
				<staff-layout number="1">
					<staff-distance>104.156</staff-distance>
				</staff-layout>
			</print>
			<attributes>
				<time>
					<beats>5</beats>
					<beat-type>8</beat-type>
				</time>
				<clef number="1">
					<sign>G</sign>
					<line>2</line>
					<clef-octave-change>-1</clef-octave-change>
				</clef>
				<staff-details number="1" print-object="yes">
				</staff-details>
			</attributes>
			<direction placement="above">
				<direction-type><words font-family="Arial" font-size="8.500000" font-weight="normal" font-style="normal" relative-x="61.93" default-y="34.58">Dulcis in Star melliscampana</words></direction-type>
			</direction>
			<forward>
				<duration>2100</duration>
			</forward>
			<direction placement="above">
				<direction-type><words font-family="Garamond" font-size="8.500000" font-weight="normal" font-style="normal" relative-x="0.00" default-y="40.97"></words></direction-type>
			</direction>
			<backup>
				<duration>2100</duration>
			</backup>
			<note>
				<pitch>
					<step>D</step>
					<octave>3</octave>
				</pitch>
				<duration>3360</duration>
				<voice>1</voice>
				<type>eighth</type>
				<stem default-y="-3.03">up</stem>
				<beam number="1">begin</beam>
			</note>
			<note>
				<pitch>
					<step>E</step>
					<octave>3</octave>
				</pitch>
				<duration>3360</duration>
				<voice>1</voice>
				<type>eighth</type>
				<stem default-y="-2.09">up</stem>
				<beam number="1">continue</beam>
			</note>
			<note>
				<pitch>
					<step>F</step>
					<octave>3</octave>
				</pitch>
				<duration>3360</duration>
				<voice>1</voice>
				<type>eighth</type>
				<stem default-y="-1.33">up</stem>
				<beam number="1">continue</beam>
			</note>
			<note>
				<pitch>
					<step>G</step>
					<octave>3</octave>
				</pitch>
				<duration>3360</duration>
				<voice>1</voice>
				<type>eighth</type>
				<stem default-y="-0.57">up</stem>
				<beam number="1">end</beam>
			</note>
			<backup>
				<duration>3360</duration>
			</backup>
			<note>
				<pitch>
					<step>A</step>
					<octave>3</octave>
				</pitch>
				<duration>6720</duration>
				<voice>1</voice>
				<type>quarter</type>
				<stem default-y="-53.01">down</stem>
			</note>
		</measure>
		<!--==========================[2,6]=============================-->
		<measure number="6" width="166">
			<note>
				<pitch>
					<step>B</step>
					<octave>3</octave>
				</pitch>
				<duration>6720</duration>
				<voice>1</voice>
				<type>quarter</type>
				<stem default-y="-50.53">down</stem>
			</note>
			<backup>
				<duration>3360</duration>
			</backup>
			<note>
				<pitch>
					<step>C</step>
					<octave>4</octave>
				</pitch>
				<duration>6720</duration>
				<voice>1</voice>
				<type>quarter</type>
				<stem default-y="-48.24">down</stem>
				<notations>
					<slur type="start" number="1" placement="above" orientation="over"/>
				</notations>
			</note>
			<backup>
				<duration>3360</duration>
			</backup>
			<note>
				<pitch>
					<step>D</step>
					<octave>4</octave>
				</pitch>
				<duration>6720</duration>
				<voice>1</voice>
				<type>quarter</type>
				<stem default-y="-45.59">down</stem>
				<notations>
					<slur type="stop" number="1"/>
				</notations>
			</note>
			<backup>
				<duration>3360</duration>
			</backup>
			<note>
				<pitch>
					<step>B</step>
					<octave>3</octave>
				</pitch>
				<duration>3360</duration>
				<voice>1</voice>
				<type>eighth</type>
				<stem default-y="6.90">up</stem>
				<beam number="1">begin</beam>
			</note>
			<note>
				<pitch>
					<step>A</step>
					<octave>3</octave>
				</pitch>
				<duration>3360</duration>
				<voice>1</voice>
				<type>eighth</type>
				<stem default-y="4.50">up</stem>
				<beam number="1">end</beam>
			</note>
		</measure>
		<!--==========================[2,7]=============================-->
		<measure number="7" width="226">
			<direction placement="above">
				<direction-type><words font-family="Arial" font-size="8.500000" font-weight="normal" font-style="normal" relative-x="40.61" default-y="34.58">vocorgabri el is</words></direction-type>
			</direction>
			<note>
				<pitch>
					<step>A</step>
					<octave>3</octave>
				</pitch>
				<duration>3360</duration>
				<voice>1</voice>
				<type>eighth</type>
				<stem default-y="1.90">up</stem>
				<beam number="1">begin</beam>
			</note>
			<note>
				<pitch>
					<step>G</step>
					<octave>3</octave>
				</pitch>
				<duration>3360</duration>
				<voice>1</voice>
				<type>eighth</type>
				<stem default-y="-0.50">up</stem>
				<beam number="1">end</beam>
			</note>
			<note>
				<pitch>
					<step>F</step>
					<octave>3</octave>
				</pitch>
				<duration>3360</duration>
				<voice>1</voice>
				<type>eighth</type>
				<stem default-y="-3.01">up</stem>
				<beam number="1">begin</beam>
			</note>
			<note>
				<pitch>
					<step>G</step>
					<octave>3</octave>
				</pitch>
				<duration>3360</duration>
				<voice>1</voice>
				<type>eighth</type>
				<stem default-y="-0.59">up</stem>
				<beam number="1">end</beam>
			</note>
			<note>
				<pitch>
					<step>E</step>
					<octave>3</octave>
				</pitch>
				<duration>3360</duration>
				<voice>1</voice>
				<type>eighth</type>
				<stem default-y="-10.62">up</stem>
				<beam number="1">begin</beam>
				<notations>
					<slur type="start" number="1" placement="below" orientation="under"/>
				</notations>
			</note>
			<note>
				<pitch>
					<step>D</step>
					<octave>3</octave>
				</pitch>
				<duration>3360</duration>
				<voice>1</voice>
				<type>eighth</type>
				<stem default-y="-12.98">up</stem>
				<beam number="1">end</beam>
				<notations>
					<slur type="stop" number="1"/>
				</notations>
			</note>
			<note>
				<pitch>
					<step>D</step>
					<octave>3</octave>
				</pitch>
				<duration>13440</duration>
				<voice>1</voice>
				<type>half</type>
				<stem default-y="-10.55">up</stem>
			</note>
		</measure>
		<!--==========================[2,8]=============================-->
		<measure number="8" width="224">
			<direction placement="above">
				<direction-type><words font-family="Arial" font-size="8.500000" font-weight="normal" font-style="normal" relative-x="26.61" default-y="34.58">Eccegabri el is</words></direction-type>
			</direction>
			<note>
				<pitch>
					<step>G</step>
					<octave>3</octave>
				</pitch>
				<duration>3360</duration>
				<voice>1</voice>
				<type>eighth</type>
				<stem default-y="1.95">up</stem>
				<beam number="1">begin</beam>
			</note>
			<note>
				<pitch>
					<step>G</step>
					<octave>3</octave>
				</pitch>
				<duration>3360</duration>
				<voice>1</voice>
				<type>eighth</type>
				<stem default-y="1.95">up</stem>
				<beam number="1">end</beam>
			</note>
			<note>
				<pitch>
					<step>G</step>
					<octave>3</octave>
				</pitch>
				<duration>3360</duration>
				<voice>1</voice>
				<type>eighth</type>
				<stem default-y="1.95">up</stem>
				<beam number="1">begin</beam>
			</note>
			<note>
				<pitch>
					<step>G</step>
					<octave>3</octave>
				</pitch>
				<duration>3360</duration>
				<voice>1</voice>
				<type>eighth</type>
				<stem default-y="1.95">up</stem>
				<beam number="1">end</beam>
			</note>
			<note>
				<pitch>
					<step>G</step>
					<octave>3</octave>
				</pitch>
				<duration>3360</duration>
				<voice>1</voice>
				<type>eighth</type>
				<stem default-y="4.92">up</stem>
			</note>
			<note>
				<pitch>
					<step>G</step>
					<octave>3</octave>
				</pitch>
				<duration>6720</duration>
				<voice>1</voice>
				<type>quarter</type>
				<stem default-y="4.45">up</stem>
				<notations>
					<articulations>
						<breath-mark placement="above" relative-x="23.26" relative-y="1.42"/>
					</articulations>
				</notations>
			</note>
		</measure>
		<!--==========================[2,9]=============================-->
		<measure number="9" width="274">
			<direction placement="above">
				<direction-type><words font-family="Arial" font-size="8.500000" font-weight="normal" font-style="normal" relative-x="42.88" default-y="34.58">So</words></direction-type>
			</direction>
			<note>
				<pitch>
					<step>G</step>
					<octave>3</octave>
				</pitch>
				<duration>10080</duration>
				<tie type="start"/>
				<voice>1</voice>
				<type>quarter</type>
				<dot/>
				<stem default-y="4.45">up</stem>
				<notations>
					<tied type="start" number="1" placement="below" orientation="under"/>
				</notations>
			</note>
			<note>
				<pitch>
					<step>G</step>
					<octave>3</octave>
				</pitch>
				<duration>10080</duration>
				<tie type="stop"/>
				<voice>1</voice>
				<type>quarter</type>
				<dot/>
				<stem default-y="4.45">up</stem>
				<notations>
					<tied type="stop" number="1"/>
				</notations>
			</note>
			<note>
				<rest>
				</rest>
				<duration>13440</duration>
				<voice>1</voice>
				<type>half</type>
			</note>
		</measure>
		<!--==========================[2,10]=============================-->
		<measure number="10" width="86">
			<direction placement="above">
				<direction-type><words font-family="Arial" font-size="8.500000" font-weight="normal" font-style="normal" relative-x="10.83" default-y="34.58">fidelis</words></direction-type>
			</direction>
			<note>
				<pitch>
					<step>G</step>
					<octave>3</octave>
				</pitch>
				<duration>6720</duration>
				<voice>1</voice>
				<type>quarter</type>
				<stem default-y="4.45">up</stem>
				<notations>
					<articulations>
						<tenuto placement="below" relative-x="0.43" relative-y="-4.97"/>
					</articulations>
				</notations>
			</note>
			<note>
				<pitch>
					<step>G</step>
					<octave>3</octave>
				</pitch>
				<duration>6720</duration>
				<voice>1</voice>
				<type>quarter</type>
				<stem default-y="4.45">up</stem>
				<notations>
					<articulations>
						<tenuto placement="below" relative-x="0.43" relative-y="-4.97"/>
					</articulations>
				</notations>
			</note>
			<note>
				<pitch>
					<step>G</step>
					<octave>3</octave>
				</pitch>
				<duration>20160</duration>
				<voice>1</voice>
				<type>half</type>
				<dot/>
				<stem default-y="4.45">up</stem>
			</note>
		</measure>
		<!--==========================[2,11]=============================-->
		<measure number="11" width="164">
			<print new-system="yes">
				<staff-layout number="1">
					<staff-distance>90.015</staff-distance>
				</staff-layout>
			</print>
			<attributes>
				<time>
					<beats>5</beats>
					<beat-type>8</beat-type>
				</time>
				<staff-details number="1" print-object="yes">
				</staff-details>
			</attributes>
			<direction placement="above">
				<direction-type><words font-family="Arial" font-size="8.500000" font-weight="normal" font-style="normal" relative-x="61.93" default-y="34.58">Mis</words></direction-type>
			</direction>
			<forward>
				<duration>9660</duration>
			</forward>
			<direction placement="above">
				<direction-type><words font-family="Arial" font-size="8.500000" font-weight="normal" font-style="normal" relative-x="0.00" default-y="34.58">Si</words></direction-type>
			</direction>
			<backup>
				<duration>9660</duration>
			</backup>
			<note>
				<pitch>
					<step>D</step>
					<octave>4</octave>
				</pitch>
				<duration>10080</duration>
				<voice>1</voice>
				<type>quarter</type>
				<dot/>
				<stem default-y="-45.55">down</stem>
			</note>
			<note>
				<pitch>
					<step>D</step>
					<octave>4</octave>
				</pitch>
				<duration>6720</duration>
				<voice>1</voice>
				<type>quarter</type>
				<stem default-y="-45.55">down</stem>
			</note>
		</measure>
		<!--==========================[2,12]=============================-->
		<measure number="12" width="95">
			<direction placement="above">
				<direction-type><words font-family="Arial" font-size="8.500000" font-weight="normal" font-style="normal" relative-x="6.51" default-y="34.58">de</words></direction-type>
			</direction>
			<forward>
				<duration>9660</duration>
			</forward>
			<direction placement="above">
				<direction-type><words font-family="Arial" font-size="8.500000" font-weight="normal" font-style="normal" relative-x="0.00" default-y="34.58">coe</words></direction-type>
			</direction>
			<backup>
				<duration>9660</duration>
			</backup>
			<note>
				<pitch>
					<step>G</step>
					<octave>3</octave>
				</pitch>
				<duration>10080</duration>
				<voice>1</voice>
				<type>quarter</type>
				<dot/>
				<stem default-y="4.45">up</stem>
			</note>
			<note>
				<pitch>
					<step>G</step>
					<octave>3</octave>
				</pitch>
				<duration>6720</duration>
				<voice>1</voice>
				<type>quarter</type>
				<stem default-y="4.45">up</stem>
				<notations>
					<slur type="start" number="1" placement="below" orientation="under"/>
				</notations>
			</note>
		</measure>
		<!--==========================[2,13]=============================-->
		<measure number="13" width="95">
			<forward>
				<duration>8820</duration>
			</forward>
			<direction placement="above">
				<direction-type><words font-family="Arial" font-size="8.500000" font-weight="normal" font-style="normal" relative-x="0.00" default-y="34.58">lis</words></direction-type>
			</direction>
			<backup>
				<duration>8820</duration>
			</backup>
			<note>
				<pitch>
					<step>A</step>
					<octave>3</octave>
				</pitch>
				<duration>10080</duration>
				<voice>1</voice>
				<type>quarter</type>
				<dot/>
				<stem default-y="6.95">up</stem>
				<notations>
					<slur type="stop" number="1"/>
				</notations>
			</note>
			<note>
				<pitch>
					<step>G</step>
					<octave>3</octave>
				</pitch>
				<duration>6720</duration>
				<voice>1</voice>
				<type>quarter</type>
				<stem default-y="4.45">up</stem>
			</note>
		</measure>
		<!--==========================[2,14]=============================-->
		<measure number="14" width="122">
			<direction placement="above">
				<direction-type><words font-family="Arial" font-size="8.500000" font-weight="normal" font-style="normal" relative-x="9.98" default-y="34.58">no</words></direction-type>
			</direction>
			<note>
				<pitch>
					<step>D</step>
					<octave>3</octave>
				</pitch>
				<duration>10080</duration>
				<voice>1</voice>
				<type>quarter</type>
				<dot/>
				<stem default-y="-10.55">up</stem>
				<notations>
					<slur type="start" number="1" placement="below" orientation="under"/>
				</notations>
			</note>
			<forward>
				<duration>6300</duration>
			</forward>
			<direction placement="above">
				<direction-type><words font-family="Arial" font-size="8.500000" font-weight="normal" font-style="normal" relative-x="0.00" default-y="34.58">men</words></direction-type>
			</direction>
			<backup>
				<duration>6300</duration>
			</backup>
			<note>
				<pitch>
					<step>E</step>
					<octave>3</octave>
				</pitch>
				<duration>6720</duration>
				<voice>1</voice>
				<type>quarter</type>
				<stem default-y="-5.55">up</stem>
				<notations>
					<slur type="stop" number="1"/>
				</notations>
			</note>
		</measure>
		<!--==========================[2,15]=============================-->
		<measure number="15" width="99">
			<note>
				<pitch>
					<step>F</step>
					<octave>3</octave>
				</pitch>
				<duration>10080</duration>
				<tie type="start"/>
				<voice>1</voice>
				<type>quarter</type>
				<dot/>
				<stem default-y="-0.55">up</stem>
				<notations>
					<tied type="start" number="1" placement="below" orientation="under"/>
				</notations>
			</note>
			<note>
				<pitch>
					<step>F</step>
					<octave>3</octave>
				</pitch>
				<duration>6720</duration>
				<tie type="stop"/>
				<voice>1</voice>
				<type>quarter</type>
				<stem default-y="-0.55">up</stem>
				<notations>
					<tied type="stop" number="1"/>
					<articulations>
						<breath-mark placement="above" relative-x="23.26" relative-y="6.42"/>
					</articulations>
				</notations>
			</note>
		</measure>
		<!--==========================[2,16]=============================-->
		<measure number="16" width="122">
			<direction placement="above">
				<direction-type><words font-family="Arial" font-size="8.500000" font-weight="normal" font-style="normal" relative-x="10.22" default-y="34.58">ha</words></direction-type>
			</direction>
			<forward>
				<duration>9240</duration>
			</forward>
			<direction placement="above">
				<direction-type><words font-family="Arial" font-size="8.500000" font-weight="normal" font-style="normal" relative-x="0.00" default-y="34.58">be</words></direction-type>
			</direction>
			<backup>
				<duration>9240</duration>
			</backup>
			<note>
				<pitch>
					<step>G</step>
					<octave>3</octave>
				</pitch>
				<duration>10080</duration>
				<voice>1</voice>
				<type>quarter</type>
				<dot/>
				<stem default-y="4.45">up</stem>
			</note>
			<note>
				<pitch>
					<step>D</step>
					<octave>3</octave>
				</pitch>
				<duration>6720</duration>
				<voice>1</voice>
				<type>quarter</type>
				<stem default-y="-10.55">up</stem>
			</note>
		</measure>
		<!--==========================[2,17]=============================-->
		<measure number="17" width="104">
			<direction placement="above">
				<direction-type><words font-family="Arial" font-size="8.500000" font-weight="normal" font-style="normal" relative-x="11.73" default-y="34.58">o</words></direction-type>
			</direction>
			<note>
				<pitch>
					<step>D</step>
					<octave>3</octave>
				</pitch>
				<duration>10080</duration>
				<tie type="start"/>
				<voice>1</voice>
				<type>quarter</type>
				<dot/>
				<stem default-y="-10.55">up</stem>
				<notations>
					<tied type="start" number="1" placement="below" orientation="under"/>
				</notations>
			</note>
			<forward>
				<duration>6300</duration>
			</forward>
			<direction placement="above">
				<direction-type><words font-family="Arial" font-size="8.500000" font-weight="normal" font-style="normal" relative-x="0.00" default-y="34.58">Gab ri</words></direction-type>
			</direction>
			<backup>
				<duration>6300</duration>
			</backup>
			<note>
				<pitch>
					<step>D</step>
					<octave>3</octave>
				</pitch>
				<duration>6720</duration>
				<tie type="stop"/>
				<voice>1</voice>
				<type>quarter</type>
				<stem default-y="-10.55">up</stem>
				<notations>
					<tied type="stop" number="1"/>
					<articulations>
						<breath-mark placement="above" relative-x="23.26" relative-y="16.42"/>
					</articulations>
				</notations>
			</note>
		</measure>
		<!--==========================[2,18]=============================-->
		<measure number="18" width="95">
			<note>
				<pitch>
					<step>D</step>
					<octave>4</octave>
				</pitch>
				<duration>10080</duration>
				<voice>1</voice>
				<type>quarter</type>
				<dot/>
				<stem default-y="-45.55">down</stem>
			</note>
			<note>
				<pitch>
					<step>D</step>
					<octave>4</octave>
				</pitch>
				<duration>6720</duration>
				<voice>1</voice>
				<type>quarter</type>
				<stem default-y="-45.55">down</stem>
			</note>
		</measure>
		<!--==========================[2,19]=============================-->
		<measure number="19" width="95">
			<direction placement="above">
				<direction-type><words font-family="Arial" font-size="8.500000" font-weight="normal" font-style="normal" relative-x="9.86" default-y="34.58">e</words></direction-type>
			</direction>
			<note>
				<pitch>
					<step>B</step>
					<octave>3</octave>
				</pitch>
				<duration>10080</duration>
				<tie type="start"/>
				<voice>1</voice>
				<type>quarter</type>
				<dot/>
				<stem default-y="-50.55">down</stem>
				<notations>
					<tied type="start" number="1" placement="above" orientation="over"/>
					<slur type="start" number="1" placement="above" orientation="over"/>
				</notations>
			</note>
			<note>
				<pitch>
					<step>B</step>
					<octave>3</octave>
				</pitch>
				<duration>6720</duration>
				<tie type="stop"/>
				<voice>1</voice>
				<type>quarter</type>
				<stem default-y="-50.55">down</stem>
				<notations>
					<tied type="stop" number="1"/>
				</notations>
			</note>
		</measure>
		<!--==========================[2,20]=============================-->
		<measure number="20" width="95">
			<note>
				<pitch>
					<step>G</step>
					<octave>3</octave>
				</pitch>
				<duration>10080</duration>
				<tie type="start"/>
				<voice>1</voice>
				<type>quarter</type>
				<dot/>
				<stem default-y="4.45">up</stem>
				<notations>
					<tied type="start" number="1" placement="below" orientation="under"/>
				</notations>
			</note>
			<note>
				<pitch>
					<step>G</step>
					<octave>3</octave>
				</pitch>
				<duration>6720</duration>
				<tie type="stop"/>
				<voice>1</voice>
				<type>quarter</type>
				<stem default-y="4.45">up</stem>
				<notations>
					<tied type="stop" number="1"/>
					<slur type="stop" number="1"/>
				</notations>
			</note>
		</measure>
		<!--==========================[2,21]=============================-->
		<measure number="21" width="95">
			<direction placement="above">
				<direction-type><words font-family="Arial" font-size="8.500000" font-weight="normal" font-style="normal" relative-x="6.45" default-y="34.58">lis.</words></direction-type>
			</direction>
			<note>
				<pitch>
					<step>D</step>
					<octave>4</octave>
				</pitch>
				<duration>10080</duration>
				<tie type="start"/>
				<voice>1</voice>
				<type>quarter</type>
				<dot/>
				<stem default-y="-45.55">down</stem>
				<notations>
					<tied type="start" number="1" placement="above" orientation="over"/>
				</notations>
			</note>
			<note>
				<pitch>
					<step>D</step>
					<octave>4</octave>
				</pitch>
				<duration>6720</duration>
				<tie type="stop"/>
				<voice>1</voice>
				<type>quarter</type>
				<stem default-y="-45.55">down</stem>
				<notations>
					<tied type="stop" number="1"/>
				</notations>
			</note>
		</measure>
		<!--==========================[2,22]=============================-->
		<measure number="22" width="350">
			<print new-system="yes">
				<staff-layout number="1">
					<staff-distance>92.812</staff-distance>
				</staff-layout>
			</print>
			<attributes>
				<time>
					<beats>5</beats>
					<beat-type>4</beat-type>
				</time>
				<staff-details number="1" print-object="yes">
				</staff-details>
			</attributes>
			<direction placement="above">
				<direction-type><words font-family="Arial" font-size="8.500000" font-weight="normal" font-style="normal" relative-x="63.70" default-y="27.70">Missusvero pi</words></direction-type>
			</direction>
			<forward>
				<duration>2100</duration>
			</forward>
			<direction placement="above">
				<direction-type><words font-family="Garamond" font-size="8.500000" font-weight="normal" font-style="normal" relative-x="0.00" default-y="34.09"></words></direction-type>
			</direction>
			<backup>
				<duration>2100</duration>
			</backup>
			<note>
				<pitch>
					<step>G</step>
					<octave>3</octave>
				</pitch>
				<duration>3360</duration>
				<voice>1</voice>
				<type>eighth</type>
				<stem default-y="1.95">up</stem>
				<beam number="1">begin</beam>
			</note>
			<note>
				<pitch>
					<step>G</step>
					<octave>3</octave>
				</pitch>
				<duration>3360</duration>
				<voice>1</voice>
				<type>eighth</type>
				<stem default-y="1.95">up</stem>
				<beam number="1">continue</beam>
			</note>
			<note>
				<pitch>
					<step>G</step>
					<octave>3</octave>
				</pitch>
				<duration>3360</duration>
				<voice>1</voice>
				<type>eighth</type>
				<stem default-y="1.95">up</stem>
				<beam number="1">continue</beam>
			</note>
			<note>
				<pitch>
					<step>G</step>
					<octave>3</octave>
				</pitch>
				<duration>3360</duration>
				<voice>1</voice>
				<type>eighth</type>
				<stem default-y="1.95">up</stem>
				<beam number="1">end</beam>
			</note>
			<forward>
				<duration>6720</duration>
			</forward>
			<direction placement="above">
				<direction-type><words font-family="Arial" font-size="8.500000" font-weight="normal" font-style="normal" relative-x="0.00" default-y="27.70">e Gabri</words></direction-type>
			</direction>
			<backup>
				<duration>6720</duration>
			</backup>
			<note>
				<pitch>
					<step>D</step>
					<octave>4</octave>
				</pitch>
				<duration>6720</duration>
				<voice>1</voice>
				<type>quarter</type>
				<stem default-y="-45.55">down</stem>
			</note>
			<note>
				<pitch>
					<step>D</step>
					<octave>4</octave>
				</pitch>
				<duration>6720</duration>
				<voice>1</voice>
				<type>quarter</type>
				<stem default-y="-45.55">down</stem>
			</note>
			<note>
				<pitch>
					<step>D</step>
					<octave>4</octave>
				</pitch>
				<duration>3360</duration>
				<voice>1</voice>
				<type>eighth</type>
				<stem default-y="-40.55">down</stem>
				<beam number="1">begin</beam>
				<notations>
					<articulations>
						<breath-mark placement="above" relative-x="-17.39" relative-y="11.45"/>
					</articulations>
				</notations>
			</note>
			<note>
				<pitch>
					<step>D</step>
					<octave>4</octave>
				</pitch>
				<duration>3360</duration>
				<voice>1</voice>
				<type>eighth</type>
				<stem default-y="-40.55">down</stem>
				<beam number="1">end</beam>
			</note>
		</measure>
		<!--==========================[2,23]=============================-->
		<measure number="23" width="181">
			<direction placement="above">
				<direction-type><words font-family="Arial" font-size="8.500000" font-weight="normal" font-style="normal" relative-x="32.58" default-y="27.70">el</words></direction-type>
			</direction>
			<note>
				<pitch>
					<step>C</step>
					<octave>4</octave>
				</pitch>
				<duration>6720</duration>
				<voice>1</voice>
				<type>quarter</type>
				<stem default-y="-48.05">down</stem>
				<notations>
					<slur type="start" number="1" placement="above" orientation="over"/>
				</notations>
			</note>
			<forward>
				<duration>4200</duration>
			</forward>
			<direction placement="above">
				<direction-type><words font-family="Arial" font-size="8.500000" font-weight="normal" font-style="normal" relative-x="0.00" default-y="27.70">fert</words></direction-type>
			</direction>
			<backup>
				<duration>4200</duration>
			</backup>
			<note>
				<pitch>
					<step>G</step>
					<octave>3</octave>
				</pitch>
				<duration>6720</duration>
				<voice>1</voice>
				<type>quarter</type>
				<stem default-y="4.45">up</stem>
				<notations>
					<slur type="stop" number="1"/>
				</notations>
			</note>
			<note>
				<pitch>
					<step>G</step>
					<octave>3</octave>
				</pitch>
				<duration>6720</duration>
				<voice>1</voice>
				<type>quarter</type>
				<stem default-y="4.45">up</stem>
			</note>
			<forward>
				<duration>5040</duration>
			</forward>
			<direction placement="above">
				<direction-type><words font-family="Arial" font-size="8.500000" font-weight="normal" font-style="normal" relative-x="0.00" default-y="27.70">lae</words></direction-type>
			</direction>
			<backup>
				<duration>5040</duration>
			</backup>
			<note>
				<rest>
				</rest>
				<duration>6720</duration>
				<voice>1</voice>
				<type>quarter</type>
			</note>
			<note>
				<pitch>
					<step>G</step>
					<octave>3</octave>
				</pitch>
				<duration>6720</duration>
				<voice>1</voice>
				<type>quarter</type>
				<stem default-y="4.45">up</stem>
			</note>
		</measure>
		<!--==========================[2,24]=============================-->
		<measure number="24" width="130">
			<direction placement="above">
				<direction-type><words font-family="Arial" font-size="8.500000" font-weight="normal" font-style="normal" relative-x="36.22" default-y="27.70">ta</words></direction-type>
			</direction>
			<note>
				<pitch>
					<step>F</step>
					<alter>1</alter>
					<octave>3</octave>
				</pitch>
				<duration>6720</duration>
				<voice>1</voice>
				<type>quarter</type>
				<accidental relative-x="2.18">sharp</accidental>
				<stem default-y="-0.55">up</stem>
			</note>
			<forward>
				<duration>4620</duration>
			</forward>
			<direction placement="above">
				<direction-type><words font-family="Arial" font-size="8.500000" font-weight="normal" font-style="normal" relative-x="0.00" default-y="27.70">Ma ri</words></direction-type>
			</direction>
			<backup>
				<duration>4620</duration>
			</backup>
			<note>
				<rest>
				</rest>
				<duration>6720</duration>
				<voice>1</voice>
				<type>quarter</type>
			</note>
			<note>
				<pitch>
					<step>D</step>
					<octave>4</octave>
				</pitch>
				<duration>6720</duration>
				<voice>1</voice>
				<type>quarter</type>
				<stem default-y="-45.55">down</stem>
			</note>
		</measure>
		<!--==========================[2,25]=============================-->
		<measure number="25" width="66">
			<note>
				<pitch>
					<step>G</step>
					<octave>4</octave>
				</pitch>
				<duration>20160</duration>
				<voice>1</voice>
				<type>half</type>
				<dot/>
				<stem default-y="-30.55">down</stem>
			</note>
		</measure>
		<!--==========================[2,26]=============================-->
		<measure number="26" width="66">
			<forward>
				<duration>2100</duration>
			</forward>
			<direction placement="above">
				<direction-type><words font-family="Arial" font-size="8.500000" font-weight="normal" font-style="normal" relative-x="0.00" default-y="27.70">ae.</words></direction-type>
			</direction>
			<backup>
				<duration>2100</duration>
			</backup>
			<note>
				<pitch>
					<step>A</step>
					<octave>4</octave>
				</pitch>
				<duration>20160</duration>
				<voice>1</voice>
				<type>half</type>
				<dot/>
				<stem default-y="-25.55">down</stem>
			</note>
		</measure>
		<!--==========================[2,27]=============================-->
		<measure number="27" width="66">
			<note>
				<rest>
				</rest>
				<duration>33600</duration>
				<voice>1</voice>
				<type>whole</type>
			</note>
		</measure>
		<!--==========================[2,28]=============================-->
		<measure number="28" width="188">
			<direction placement="above">
				<direction-type><words font-family="Arial" font-size="8.500000" font-weight="normal" font-style="normal" relative-x="30.21" default-y="27.70">orex glor i a ven i cumpa ce.</words></direction-type>
			</direction>
			<note>
				<pitch>
					<step>D</step>
					<octave>3</octave>
				</pitch>
				<duration>3360</duration>
				<voice>1</voice>
				<type>eighth</type>
				<stem default-y="-13.01">up</stem>
				<notehead parentheses="yes">normal</notehead>
				<beam number="1">begin</beam>
			</note>
			<note>
				<pitch>
					<step>E</step>
					<octave>3</octave>
				</pitch>
				<duration>3360</duration>
				<voice>1</voice>
				<type>eighth</type>
				<stem default-y="-10.93">up</stem>
				<beam number="1">continue</beam>
			</note>
			<note>
				<pitch>
					<step>F</step>
					<octave>3</octave>
				</pitch>
				<duration>3360</duration>
				<voice>1</voice>
				<type>eighth</type>
				<accidental relative-x="6.16">natural</accidental>
				<stem default-y="-8.09">up</stem>
				<beam number="1">end</beam>
			</note>
			<note>
				<pitch>
					<step>G</step>
					<octave>3</octave>
				</pitch>
				<duration>3360</duration>
				<voice>1</voice>
				<type>eighth</type>
				<stem default-y="4.92">up</stem>
			</note>
			<note>
				<pitch>
					<step>A</step>
					<octave>3</octave>
				</pitch>
				<duration>6720</duration>
				<voice>1</voice>
				<type>quarter</type>
				<stem default-y="6.95">up</stem>
			</note>
		</measure>
		<!--==========================[2,29]=============================-->
		<measure number="29" width="157">
			<note>
				<pitch>
					<step>B</step>
					<octave>3</octave>
				</pitch>
				<duration>3360</duration>
				<voice>1</voice>
				<type>eighth</type>
				<stem default-y="-48.03">down</stem>
				<beam number="1">begin</beam>
			</note>
			<note>
				<pitch>
					<step>C</step>
					<octave>4</octave>
				</pitch>
				<duration>3360</duration>
				<voice>1</voice>
				<type>eighth</type>
				<stem default-y="-46.81">down</stem>
				<beam number="1">continue</beam>
			</note>
			<note>
				<pitch>
					<step>D</step>
					<octave>4</octave>
				</pitch>
				<duration>3360</duration>
				<voice>1</voice>
				<type>eighth</type>
				<stem default-y="-45.57">down</stem>
				<beam number="1">end</beam>
			</note>
			<note>
				<pitch>
					<step>C</step>
					<octave>4</octave>
				</pitch>
				<duration>3360</duration>
				<voice>1</voice>
				<type>eighth</type>
				<stem default-y="-48.54">down</stem>
				<notations>
					<articulations>
						<tenuto placement="above" relative-x="0.43" relative-y="0.03"/>
					</articulations>
				</notations>
			</note>
			<note>
				<pitch>
					<step>B</step>
					<octave>3</octave>
				</pitch>
				<duration>6720</duration>
				<voice>1</voice>
				<type>quarter</type>
				<stem default-y="-50.55">down</stem>
			</note>
			<barline location="right">
				<bar-style>light-heavy</bar-style>
			</barline>
		</measure>
	</part>
</score-partwise>
